<?xml version="1.0" encoding="UTF-8" standalone="no"?>
<svg
   xmlns:dc="http://purl.org/dc/elements/1.1/"
   xmlns:cc="http://creativecommons.org/ns#"
   xmlns:rdf="http://www.w3.org/1999/02/22-rdf-syntax-ns#"
   xmlns:svg="http://www.w3.org/2000/svg"
   xmlns="http://www.w3.org/2000/svg"
   viewBox="0 0 1061.3333 732"
   height="732"
   width="1061.3333"
   xml:space="preserve"
   id="svg2"
   version="1.1"><metadata
     id="metadata8"><rdf:RDF><cc:Work
         rdf:about=""><dc:format>image/svg+xml</dc:format><dc:type
           rdf:resource="http://purl.org/dc/dcmitype/StillImage" /></cc:Work></rdf:RDF></metadata><defs
     id="defs6"><clipPath
       id="clipPath18"
       clipPathUnits="userSpaceOnUse"><path
         id="path16"
         d="M 0,549 H 796 V 0 H 0 Z" /></clipPath></defs><g
     transform="matrix(1.3333333,0,0,-1.3333333,0,732)"
     id="g10"><g
       id="g12"><g
         clip-path="url(#clipPath18)"
         id="g14"><g
           transform="translate(214.293,155.1943)"
           id="g20"><path
             id="path22"
             style="fill:#000000;fill-opacity:1;fill-rule:nonzero;stroke:none"
             d="M 0,0 C -3.404,18.837 5.169,34.537 13.124,50.398 11.201,32.957 9.852,15.365 0,0 m 50.31,101.543 c -1.035,-0.48 -1.902,-1.327 -2.828,-2.035 -6.769,-5.175 -13.536,-10.355 -21.435,-16.399 0.856,2.894 1.236,4.31 1.693,5.702 4.778,14.536 9.713,29.022 14.238,43.635 0.993,3.205 0.835,6.875 0.657,10.303 -0.16,3.086 -2.385,4.378 -5.303,3.409 -2.002,-0.664 -4.408,-1.48 -5.589,-3.026 C 23.595,132.463 14.142,122.672 9.477,109.625 6.03,99.985 -8.564,91.433 -19.407,93.348 c 1.463,4.598 1.943,9.652 4.444,13.335 9.163,13.488 19.039,26.492 28.511,39.775 0.845,1.184 0.709,3.067 1.028,4.626 -2.076,0.181 -4.231,0.774 -6.198,0.393 -1.219,-0.237 -2.288,-1.846 -3.191,-3.019 -5.995,-7.78 -12.587,-15.2 -17.728,-23.516 -8.377,-13.55 -20.616,-23.473 -31.066,-35.06 -2.999,-3.324 -6.291,-2.551 -7.503,1.77 -0.978,3.484 -1.657,7.644 -0.689,10.989 7.38,25.51 20.694,48.218 34.263,70.776 0.969,1.61 1.862,3.267 2.803,4.924 -6.726,3.119 -11.562,1.491 -15.443,-3.768 -2.273,-3.081 -4.724,-6.033 -6.962,-9.14 -10.312,-14.329 -20.48,-28.76 -30.892,-43.015 -7.123,-9.751 -14.563,-19.271 -21.861,-28.894 7.536,33.131 23.085,62.733 37.687,92.723 -5.471,2.272 -6.808,2.023 -10.728,-2.994 -34.461,-44.094 -68.873,-88.227 -103.278,-132.363 -0.63,-0.809 -1.001,-1.82 -1.492,-2.737 2.54,-0.227 4.816,0.07 6.187,1.342 4.134,3.835 8.346,7.72 11.767,12.169 24.83,32.292 49.474,64.726 74.176,97.115 -0.422,-1.827 -0.652,-3.735 -1.357,-5.448 -3.354,-8.155 -7.174,-16.133 -10.231,-24.394 -5.192,-14.028 -9.96,-28.211 -14.85,-42.35 -1.165,-3.37 -1.199,-6.938 2.009,-9.038 3.385,-2.218 6.478,-0.062 8.874,2.335 2.454,2.455 4.695,5.187 6.673,8.045 14.217,20.536 28.339,41.138 42.511,61.706 0.769,1.116 1.717,2.11 3.167,3.871 -5.623,-13.306 -10.956,-25.633 -16.031,-38.067 -2.258,-5.534 -4.164,-11.23 -5.929,-16.945 -2.344,-7.588 -0.548,-14.093 4.5,-17.567 4.748,-3.269 10.289,-2.603 16.987,2.442 3.282,2.472 6.214,5.408 9.341,8.167 5.377,-9.671 11.255,-11.18 20.599,-5.529 5.128,3.101 10.265,6.193 15.472,9.158 1.013,0.576 2.939,1.18 3.471,0.697 2.905,-2.633 4.855,-0.454 6.996,0.996 1.995,1.352 3.962,2.746 5.94,4.122 C 19.37,86.17 17.232,71.513 10.452,58.101 5.884,49.063 1.818,39.728 -1.818,30.274 -6.156,18.999 -8.167,7.226 -7.503,-4.961 c 0.234,-4.31 2.398,-7.475 6.118,-7.966 2.196,-0.29 5.826,1.928 7.02,4.034 2.984,5.267 5.828,10.914 7.147,16.766 3.476,15.405 6.287,30.97 9.022,46.531 2.032,11.564 5.276,22.426 14.65,30.315 3.944,3.319 8.272,6.178 12.28,9.426 1.641,1.329 3.03,3.038 4.252,4.772 0.364,0.516 0.01,1.889 -0.472,2.519 -0.303,0.394 -1.58,0.396 -2.204,0.107" /></g><g
           transform="translate(770.0986,289.5078)"
           id="g24"><path
             id="path26"
             style="fill:#000000;fill-opacity:1;fill-rule:nonzero;stroke:none"
             d="M 0,0 C -0.779,1.29 -4.536,1.001 -6.95,1.008 -8.736,1.014 -10.532,0 -12.311,0.039 c -7.977,0.176 -15.96,0.402 -23.923,0.907 -23.751,1.507 -47.488,3.24 -71.241,4.705 -11.465,0.707 -12.691,1.831 -12.446,13.403 0.018,0.833 0.281,1.804 -0.05,2.475 -1.302,2.642 -2.798,5.189 -4.221,7.772 -2.379,-1.707 -5.129,-3.076 -7.057,-5.195 -3.436,-3.777 -6.313,-8.058 -9.581,-11.999 -0.572,-0.689 -1.911,-0.744 -2.897,-1.091 -0.045,1.038 -0.474,2.261 -0.075,3.083 2.036,4.186 4.623,8.138 6.301,12.451 0.693,1.782 0.302,5.477 -0.844,6.138 -1.711,0.986 -4.873,0.73 -6.771,-0.249 -1.852,-0.956 -3.062,-3.38 -4.26,-5.339 -5.954,-9.735 -14.27,-16.646 -24.895,-20.653 -1.793,-0.677 -4.883,-0.864 -5.937,0.177 -1.335,1.319 -1.662,4.147 -1.565,6.286 0.092,2.069 1.281,4.088 1.976,6.133 2.151,6.32 1.458,7.99 -3.688,11.839 -4.481,3.35 -8.093,1.82 -11.547,-1.416 -2.303,-2.157 -4.241,-4.73 -6.666,-6.724 -5.227,-4.299 -10.367,-8.832 -16.126,-12.301 -3.2,-1.927 -7.54,-2.129 -11.427,-2.692 -3.065,-0.443 -4.377,1.521 -3.535,4.329 0.842,2.805 1.965,5.596 3.428,8.124 1.909,3.3 2.258,9.271 -0.176,10.603 -3.79,2.073 -6.458,-0.428 -8.225,-3.348 -2.996,-4.949 -5.629,-10.125 -8.285,-15.272 -3.583,-6.942 -8.592,-12.248 -16.273,-14.536 -4.228,-1.258 -6.37,0.769 -5.458,5.089 0.238,1.13 0.694,2.227 1.146,3.297 3.297,7.814 6.542,15.651 9.966,23.408 1.547,3.504 0.226,5.597 -2.652,7.5 -3.334,2.204 -4.031,-0.949 -5.263,-2.53 -1.834,-2.353 -3.459,-4.902 -4.917,-7.511 -8.959,-16.021 -18.887,-31.373 -30.735,-45.445 -11.685,-13.879 -22.884,-28.187 -34.993,-41.683 -17.788,-19.825 -36.271,-39.024 -54.278,-58.656 -4.104,-4.475 -7.471,-9.63 -11.158,-14.448 4.88,-3.831 6.448,-3.552 9.572,0.224 13.481,16.291 26.419,33.094 40.769,48.588 24.563,26.521 50.089,52.154 70.448,82.255 0.301,0.445 0.911,0.679 1.774,1.294 0.374,-1.739 0.665,-3.006 0.917,-4.28 1.558,-7.864 4.906,-9.992 12.388,-6.956 5.053,2.052 9.858,4.835 14.503,7.727 3.549,2.209 6.601,3.655 10.954,1.646 2.311,-1.067 5.566,-0.609 8.282,-0.158 4.506,0.748 8.92,2.045 13.24,3.079 2.86,-6.246 5.309,-7.732 10.504,-5.837 2.721,0.992 5.145,2.932 7.526,4.684 2.238,1.646 4.246,3.609 6.844,5.855 6.392,-9.749 14.461,-8.422 23.022,-4.252 4.024,1.961 8.151,3.712 12.329,5.602 0.444,-0.73 0.885,-1.251 1.109,-1.853 2.895,-7.783 5.298,-8.82 12.941,-4.96 3.986,2.014 7.703,4.561 12.083,7.193 4.398,-9.039 10.938,-12.917 20.559,-10.232 0.464,0.129 0.996,0.033 1.496,0.02 26.796,-0.746 53.599,-1.335 80.386,-2.345 6.933,-0.261 14.492,0.788 20.079,-5.341 0.736,-0.807 2.696,-1.233 3.748,-0.865 2.353,0.824 5.867,1.835 6.396,3.546 C 2.019,-6.084 1.435,-2.373 0,0" /></g><g
           transform="translate(400.54,336.0869)"
           id="g28"><path
             id="path30"
             style="fill:#000000;fill-opacity:1;fill-rule:nonzero;stroke:none"
             d="m 0,0 c -3.567,-11.316 -8.026,-22.029 -12.087,-32.89 -4.25,-11.37 -8.188,-22.859 -12.117,-34.345 -1.499,-4.384 -0.483,-5.975 3.905,-5.037 2.908,0.621 5.519,3.089 8.025,5.036 3.745,2.908 7.083,6.373 10.97,9.054 2.997,2.067 4.928,0.921 5.871,-2.942 2.444,-10.014 5.286,-19.932 8.104,-29.849 0.412,-1.451 1.261,-3.414 2.426,-3.902 4.562,-1.912 9.78,1.164 10.498,6.015 0.51,3.447 0.501,6.97 0.983,10.423 0.847,6.067 1.048,12.393 2.994,18.108 11.205,32.896 29.236,61.216 57.575,82.083 3.543,2.609 8.55,3.157 12.703,5.047 2.035,0.927 4.663,2.462 5.162,4.243 0.393,1.407 -1.636,4.299 -3.323,5.327 -4.621,2.818 -9.251,1.242 -12.82,-2.12 C 77.245,23.298 64.931,12.879 54.617,0.775 38.377,-18.282 28.247,-41.076 19.225,-64.28 c -0.781,-2.008 -1.579,-4.008 -2.831,-7.181 -4.651,21.424 -7.998,24.101 -25.315,21.021 0.44,1.727 0.682,3.336 1.25,4.82 5.826,15.219 11.735,30.405 17.533,45.635 0.815,2.139 1.795,4.535 1.536,6.672 C 11.146,8.761 9.779,11.151 8.14,12.405 7.366,12.996 4.558,11.577 3.122,10.479 1.445,9.198 0.094,7.387 -1.111,5.61 c -17.762,-26.172 -35.426,-52.411 -53.266,-78.53 -2.131,-3.12 -5.153,-5.63 -7.763,-8.423 -1.186,1.742 -1.379,2.698 -1.285,3.627 1.44,14.257 3.028,28.467 9.197,41.707 1.674,3.592 3.185,7.403 3.829,11.269 0.29,1.743 -1.732,3.87 -2.705,5.823 -1.473,-0.812 -3.353,-1.287 -4.356,-2.492 -6.497,-7.808 -12.644,-15.909 -19.227,-23.641 -4.471,-5.251 -9.466,-10.055 -14.226,-15.059 -0.361,0.266 -0.723,0.532 -1.084,0.799 0.664,1.823 1.265,3.67 2.002,5.462 8.857,21.54 17.773,43.057 26.52,64.642 0.593,1.464 -0.043,3.428 -0.106,5.158 -2.321,-0.157 -4.931,0.279 -6.868,-0.664 -1.498,-0.729 -2.456,-3.074 -3.138,-4.894 -9.392,-25.082 -18.703,-50.192 -27.997,-75.309 -0.514,-1.389 -1.275,-3.051 -0.929,-4.311 0.62,-2.248 1.58,-4.76 3.231,-6.219 0.875,-0.774 4.028,-0.18 5.246,0.859 4.897,4.177 9.944,8.358 13.981,13.315 4.496,5.521 7.927,11.906 11.885,17.874 1.078,1.625 2.385,3.098 3.587,4.642 -0.765,-5.321 -2.262,-10.062 -3.569,-14.855 -2.872,-10.522 -4.435,-21.244 -2.867,-32.093 0.364,-2.514 2.628,-6.064 4.729,-6.668 2.396,-0.691 5.858,0.921 8.349,2.393 2.028,1.201 3.536,3.522 4.878,5.601 4.873,7.549 9.625,15.177 14.336,22.827 12.212,19.828 24.37,39.691 36.59,59.514 C -1.638,-1.227 -0.722,-0.673 0,0" /></g></g></g></g></svg>